<svg width="444.8px" height="121.76005859375px" xmlns="http://www.w3.org/2000/svg" viewBox="27.599999999999994 14.119970703124999 444.8 121.76005859375" style="background: none;" preserveAspectRatio="xMidYMid"><defs><filter id="editing-jagged" x="-100%" y="-100%" width="300%" height="300%"><feTurbulence result="turb" baseFrequency="0.09" numOctaves="1" seed="1"></feTurbulence><feDisplacementMap in="SourceGraphic" in2="turb" scale="10"></feDisplacementMap></filter></defs><g filter="url(#editing-jagged)"><g transform="translate(93.6595151424408, 99.86263084411621)"><path d="M30.06-46.50L30.06-46.50L30.06-46.50Q32.06-46.50 33.75-45.44L33.75-45.44L33.75-45.44Q34.75-45.75 35.66-45.75L35.66-45.75L35.66-45.75Q36.56-45.75 37.91-45.50L37.91-45.50L37.91-45.50Q39.25-45.25 39.84-44.25L39.84-44.25L39.84-44.25Q40.44-43.25 40.38-42.56L40.38-42.56L40.38-42.56Q40.25-41.31 39.94-40.75L39.94-40.75L39.94-40.75Q40.50-39.25 39.38-37.06L39.38-37.06L39.38-37.06Q40.88-33.44 39.31-26.25L39.31-26.25L39.31-26.25Q38.94-24.50 38.56-22.88L38.56-22.88L38.56-22.88Q37.69-19.06 37.69-17.50L37.69-17.50L37.69-17.50Q37.69-16.50 37.84-14.56L37.84-14.56L37.84-14.56Q38-12.63 38.13-10.63L38.13-10.63L38.13-10.63Q38.25-8.63 38.25-6.94L38.25-6.94L38.25-6.94Q38.25-5.25 37.91-4.78L37.91-4.78L37.91-4.78Q37.56-4.31 37.41-3.34L37.41-3.34L37.41-3.34Q37.25-2.38 37-1.44L37-1.44L37-1.44Q36.75-0.50 36.31 0.16L36.31 0.16L36.31 0.16Q35.88 0.81 35.22 0.72L35.22 0.72L35.22 0.72Q34.56 0.63 34.41 0.44L34.41 0.44L34.41 0.44Q34.25 0.25 34.13 0L34.13 0L34.13 0Q33.94-0.63 33.38-0.81L33.38-0.81L33.38-0.81Q32.50-1.06 32.47-1.97L32.47-1.97L32.47-1.97Q32.44-2.88 32.72-3.28L32.72-3.28L32.72-3.28Q33-3.69 33-4.16L33-4.16L33-4.16Q33-4.63 32.81-5.13L32.81-5.13L32.81-5.13Q32.38-6.13 31.69-6.28L31.69-6.28L31.69-6.28Q31-6.44 30.56-7.03L30.56-7.03L30.56-7.03Q30.13-7.63 29.81-8.38L29.81-8.38L29.81-8.38Q29.06-10.19 29.28-11.13L29.28-11.13L29.28-11.13Q29.50-12.06 29.19-13.38L29.19-13.38L29.19-13.38Q28.19-17.38 29.06-19.44L29.06-19.44L29.06-19.44Q29.38-20.31 29.13-20.94L29.13-20.94L29.13-20.94Q28.75-22.25 28.94-23.19L28.94-23.19L28.94-23.19Q29.31-25.06 29.31-26.66L29.31-26.66L29.31-26.66Q29.31-28.25 28.50-28.25L28.50-28.25L28.50-28.25Q27.75-28.25 27.50-24.25L27.50-24.25L27.50-24.25Q27.25-19.81 26.72-19L26.72-19L26.72-19Q26.19-18.19 25.81-17.66L25.81-17.66L25.81-17.66Q25.44-17.13 25.13-16.44L25.13-16.44L25.13-16.44Q24.50-15.06 24.50-13.41L24.50-13.41L24.50-13.41Q24.50-11.75 24.41-11.44L24.41-11.44L24.41-11.44Q24.31-11.13 24.25-10.75L24.25-10.75L24.25-10.75Q23.94-9.63 23.94-8L23.94-8L23.94-8Q23.94-5.75 23-4.38L23-4.38L23-4.38Q22.88-4.19 22.75-3.59L22.75-3.59L22.75-3.59Q22.63-3 22.38-2.38L22.38-2.38L22.38-2.38Q21.75-0.88 20.75-0.91L20.75-0.91L20.75-0.91Q19.75-0.94 19.22-1.53L19.22-1.53L19.22-1.53Q18.69-2.13 18.38-2.94L18.38-2.94L18.38-2.94Q18.06-3.75 17.88-4.56L17.88-4.56L17.88-4.56Q17.69-5.38 17.25-6.13L17.25-6.13L17.25-6.13Q16.63-7.19 17.56-10.50L17.56-10.50L17.56-10.50Q17.94-11.81 17.88-12.66L17.88-12.66L17.88-12.66Q17.81-13.50 17-14L17-14L17-14Q16.63-14.25 16.22-16.72L16.22-16.72L16.22-16.72Q15.81-19.19 15.53-20.84L15.53-20.84L15.53-20.84Q15.25-22.50 15-23.88L15-23.88L15-23.88Q14.31-27.06 13.91-27.13L13.91-27.13L13.91-27.13Q13.50-27.19 13.41-26.84L13.41-26.84L13.41-26.84Q13.31-26.50 13.38-26L13.38-26L13.38-26Q13.44-25.50 13.53-25L13.53-25L13.53-25Q13.63-24.50 13.66-24.06L13.66-24.06L13.66-24.06Q13.69-23.63 13.28-22.41L13.28-22.41L13.28-22.41Q12.88-21.19 13.19-19.63L13.19-19.63L13.19-19.63Q13.50-18.06 13.50-17.25L13.50-17.25L13.50-17.25Q13.50-16.44 13.31-15.47L13.31-15.47L13.31-15.47Q13.13-14.50 13.22-13.75L13.22-13.75L13.22-13.75Q13.31-13 13.38-12.38L13.38-12.38L13.38-12.38Q13.50-10.81 12.69-10.31L12.69-10.31L12.69-10.31Q11.88-9.81 11.91-8.69L11.91-8.69L11.91-8.69Q11.94-7.56 12.63-6.84L12.63-6.84L12.63-6.84Q13.31-6.13 13.13-5.50L13.13-5.50L13.13-5.50Q12.94-4.88 12.69-4.50L12.69-4.50L12.69-4.50Q12.44-4.13 12.50-3.88L12.50-3.88L12.50-3.88Q12.56-3.63 12.50-3.25L12.50-3.25L12.50-3.25Q12.38-1.75 10.13-0.50L10.13-0.50L10.13-0.50Q8.31 0.50 7.13 0.28L7.13 0.28L7.13 0.28Q5.94 0.06 5.38-0.56L5.38-0.56L5.38-0.56Q4.81-1.19 4.94-1.97L4.94-1.97L4.94-1.97Q5.06-2.75 4.97-3.41L4.97-3.41L4.97-3.41Q4.88-4.06 4.84-4.75L4.84-4.75L4.84-4.75Q4.81-5.44 4.75-6.13L4.75-6.13L4.75-6.13Q4.69-8 4.38-8.66L4.38-8.66L4.38-8.66Q4.06-9.31 4-10L4-10L4-10Q3.94-10.69 3.97-11.28L3.97-11.28L3.97-11.28Q4-11.88 4.06-12.38L4.06-12.38L4.06-12.38Q4.13-12.88 3.91-13.44L3.91-13.44L3.91-13.44Q3.69-14 3.88-14.88L3.88-14.88L3.88-14.88Q4.06-15.75 3.94-16.56L3.94-16.56L3.94-16.56Q3.81-17.38 3.97-18.03L3.97-18.03L3.97-18.03Q4.13-18.69 4.25-19.38L4.25-19.38L4.25-19.38Q4.44-21 3.56-21.56L3.56-21.56L3.56-21.56Q2.56-22.38 2.22-23.28L2.22-23.28L2.22-23.28Q1.88-24.19 1.94-25.63L1.94-25.63L1.94-25.63Q2-27.06 1.94-27.97L1.94-27.97L1.94-27.97Q1.88-28.88 2.28-30.16L2.28-30.16L2.28-30.16Q2.69-31.44 2.69-32.81L2.69-32.81L2.69-32.81Q2.69-34.19 2.59-35.19L2.59-35.19L2.59-35.19Q2.50-36.19 2.38-37.06L2.38-37.06L2.38-37.06Q2.25-37.94 2.13-38.88L2.13-38.88L2.13-38.88Q1.94-40.81 2.31-42.13L2.31-42.13L2.31-42.13Q2.81-43.38 3.59-44.22L3.59-44.22L3.59-44.22Q4.38-45.06 6.13-45L6.13-45L6.13-45Q9.50-44.88 10.19-45.31L10.19-45.31L10.19-45.31Q11.63-46.19 13.44-45.38L13.44-45.38L13.44-45.38Q13.94-45.19 14.31-44.88L14.31-44.88L14.31-44.88Q17.81-44 18.25-42.06L18.25-42.06L18.25-42.06Q19.50-36.81 19.50-35.09L19.50-35.09L19.50-35.09Q19.50-33.38 19.59-33.06L19.59-33.06L19.59-33.06Q19.69-32.75 19.78-32.59L19.78-32.59L19.78-32.59Q19.88-32.44 19.88-32.25L19.88-32.25L19.88-32.25Q19.88-32.06 19.75-31.25L19.75-31.25L19.75-31.25Q19.63-30.44 19.94-30L19.94-30L19.94-30Q20.25-29.56 20.66-29.56L20.66-29.56L20.66-29.56Q21.06-29.56 21.44-30L21.44-30L21.44-30Q21.88-30.50 22.03-31.97L22.03-31.97L22.03-31.97Q22.19-33.44 22.19-33.75L22.19-33.75L22.19-33.75Q22.19-34.31 22.41-34.78L22.41-34.78L22.41-34.78Q22.63-35.25 22.69-35.81L22.69-35.81L22.69-35.81Q22.75-36.38 22.88-37L22.88-37L22.88-37Q23.06-38.63 23.69-39.25L23.69-39.25L23.69-39.25Q24.31-39.88 25-40.34L25-40.34L25-40.34Q25.69-40.81 25.88-41.69L25.88-41.69L25.88-41.69Q26.06-42.56 26.28-43.31L26.28-43.31L26.28-43.31Q26.50-44.06 26.94-44.75L26.94-44.75L26.94-44.75Q28-46.50 30.06-46.50ZM44.34-34.97L44.34-34.97L44.34-34.97Q44.25-35.75 44.25-36.56L44.25-36.56L44.25-36.56Q44.25-37.38 44.50-38.47L44.50-38.47L44.50-38.47Q44.75-39.56 45.78-40.47L45.78-40.47L45.78-40.47Q46.81-41.38 47.56-42.28L47.56-42.28L47.56-42.28Q48.31-43.19 48.88-44.13L48.88-44.13L48.88-44.13Q49.44-45.06 50.25-45.63L50.25-45.63L50.25-45.63Q53.06-47.56 58.13-47.13L58.13-47.13L58.13-47.13Q60.19-46.94 62.50-45.63L62.50-45.63L62.50-45.63Q63.63-45 64.44-43.34L64.44-43.34L64.44-43.34Q65.25-41.69 65.56-41.06L65.56-41.06L65.56-41.06Q65.88-40.44 66.38-40.16L66.38-40.16L66.38-40.16Q66.88-39.88 67.28-39.38L67.28-39.38L67.28-39.38Q67.69-38.88 68.16-37.78L68.16-37.78L68.16-37.78Q68.63-36.69 69-35.25L69-35.25L69-35.25Q70-31.94 69.88-29.69L69.88-29.69L69.88-29.69Q69.75-27.44 69.69-25.13L69.69-25.13L69.69-25.13Q69.56-21 68.88-19.19L68.88-19.19L68.88-19.19Q68.19-17.38 67.84-16.16L67.84-16.16L67.84-16.16Q67.50-14.94 67.44-13.94L67.44-13.94L67.44-13.94Q67.38-12.94 67.38-12L67.38-12L67.38-12Q67.25-9.50 67.03-9L67.03-9L67.03-9Q66.81-8.50 66.31-8L66.31-8L66.31-8Q65.81-7.50 65.22-7.03L65.22-7.03L65.22-7.03Q64.63-6.56 64.06-6.13L64.06-6.13L64.06-6.13Q63.50-5.69 63.25-5.41L63.25-5.41L63.25-5.41Q63-5.13 62.66-4.63L62.66-4.63L62.66-4.63Q62.31-4.13 61.97-3.56L61.97-3.56L61.97-3.56Q61.63-3 61.34-2.53L61.34-2.53L61.34-2.53Q61.06-2.06 60.94-1.84L60.94-1.84L60.94-1.84Q60.81-1.63 60.50-1.06L60.50-1.06L60.50-1.06Q60.19-0.50 59.75 0.13L59.75 0.13L59.75 0.13Q57.31 3.13 55.13 0.38L55.13 0.38L55.13 0.38Q54.94 0.06 54.53 0.06L54.53 0.06L54.53 0.06Q54.13 0.06 53.59 0.34L53.59 0.34L53.59 0.34Q53.06 0.63 52.13 0.31L52.13 0.31L52.13 0.31Q51.19 0 50.66-0.72L50.66-0.72L50.66-0.72Q50.13-1.44 49.66-1.88L49.66-1.88L49.66-1.88Q49.19-2.31 48.75-2.56L48.75-2.56L48.75-2.56Q48.31-2.81 47.88-3L47.88-3L47.88-3Q46.69-3.63 46.63-4.03L46.63-4.03L46.63-4.03Q46.56-4.44 46.53-4.81L46.53-4.81L46.53-4.81Q46.50-5.19 46.38-5.75L46.38-5.75L46.38-5.75Q45.88-8.75 43.94-14.25L43.94-14.25L43.94-14.25Q42.44-18.38 43.13-22.81L43.13-22.81L43.13-22.81Q43.63-26.06 44.06-28.25L44.06-28.25L44.06-28.25Q44.75-31.56 44.59-32.88L44.59-32.88L44.59-32.88Q44.44-34.19 44.34-34.97ZM56.47-31.41L56.47-31.41L56.47-31.41Q55.31-31.31 54.94-30.53L54.94-30.53L54.94-30.53Q54.56-29.75 54.38-29.03L54.38-29.03L54.38-29.03Q54.19-28.31 53.91-27.88L53.91-27.88L53.91-27.88Q53.63-27.44 53.38-27L53.38-27L53.38-27Q52.31-25.44 53.13-23.75L53.13-23.75L53.13-23.75Q54.31-21.31 54.38-20.53L54.38-20.53L54.38-20.53Q54.44-19.75 54.50-18.28L54.50-18.28L54.50-18.28Q54.56-16.81 54.75-15.25L54.75-15.25L54.75-15.25Q55.31-11.31 56.44-11.31L56.44-11.31L56.44-11.31Q57.06-11.31 57.63-12.75L57.63-12.75L57.63-12.75Q57.75-13.06 57.78-13.81L57.78-13.81L57.78-13.81Q57.81-14.56 58-15.56L58-15.56L58-15.56Q58.69-19.13 58.53-20.50L58.53-20.50L58.53-20.50Q58.38-21.88 58.34-22.94L58.34-22.94L58.34-22.94Q58.31-24 58.31-25.13L58.31-25.13L58.31-28.94L58.31-28.94Q58.31-30.31 57.97-30.91L57.97-30.91L57.97-30.91Q57.63-31.50 56.47-31.41ZM71.19-43.94L71.19-43.94L71.19-43.94Q70.94-46.56 73.81-46.25L73.81-46.25L73.81-46.25Q74.44-46.19 75.16-46.06L75.16-46.06L75.16-46.06Q75.88-45.94 76.63-45.91L76.63-45.91L76.63-45.91Q77.38-45.88 77.94-46.06L77.94-46.06L77.94-46.06Q78.50-46.25 79.06-46.38L79.06-46.38L79.06-46.38Q80.25-46.56 81.31-45.81L81.31-45.81L81.31-45.81Q82-45.31 82.16-44.34L82.16-44.34L82.16-44.34Q82.31-43.38 82.34-42.09L82.34-42.09L82.34-42.09Q82.38-40.81 82.41-39.31L82.41-39.31L82.41-39.31Q82.44-37.81 82.91-36.19L82.91-36.19L82.91-36.19Q83.38-34.56 83.44-33.72L83.44-33.72L83.44-33.72Q83.50-32.88 83.44-32.13L83.44-32.13L83.44-32.13Q83.38-30.13 83.69-28.78L83.69-28.78L83.69-28.78Q84-27.44 84.06-26.97L84.06-26.97L84.06-26.97Q84.13-26.50 84.22-26.03L84.22-26.03L84.22-26.03Q84.31-25.56 84.50-25.28L84.50-25.28L84.50-25.28Q84.69-25 85.06-25.19L85.06-25.19L85.06-25.19Q85.44-25.44 85.38-26L85.38-26L85.38-26Q85.25-27.56 86.31-28.81L86.31-28.81L86.31-28.81Q87.56-30.13 86.97-31.88L86.97-31.88L86.97-31.88Q86.38-33.63 86.63-35.41L86.63-35.41L86.63-35.41Q86.88-37.19 87.19-38.56L87.19-38.56L87.19-38.56Q87.50-39.94 87.44-40.97L87.44-40.97L87.44-40.97Q87.38-42 87.31-42.91L87.31-42.91L87.31-42.91Q87.25-43.81 87.25-44.50L87.25-44.50L87.25-44.50Q87.25-45.19 87.81-45.94L87.81-45.94L87.81-45.94Q88.38-46.69 89.88-46.84L89.88-46.84L89.88-46.84Q91.38-47 93-46.31L93-46.31L93-46.31Q93.31-46.56 93.94-46.44L93.94-46.44L93.94-46.44Q94.56-46.31 94.88-45.88L94.88-45.88L94.88-45.88Q95.69-46.38 96.88-46.16L96.88-46.16L96.88-46.16Q98.06-45.94 98.41-45.38L98.41-45.38L98.41-45.38Q98.75-44.81 98.63-44.28L98.63-44.28L98.63-44.28Q98.50-43.75 98.31-42.81L98.31-42.81L98.31-42.81Q97.31-38.69 97.31-35.03L97.31-35.03L97.31-35.03Q97.31-31.38 96.94-29.97L96.94-29.97L96.94-29.97Q96.56-28.56 96.19-27.56L96.19-27.56L96.19-27.56Q95.81-26.56 95.38-25.56L95.38-25.56L95.38-25.56Q94.38-23.31 94.06-21.75L94.06-21.75L94.06-21.75Q93.88-20.88 93.44-20.28L93.44-20.28L93.44-20.28Q93-19.69 92.63-19L92.63-19L92.63-19Q91.63-17.06 91.75-14L91.75-14L91.75-14Q92.06-8.19 91-7.56L91-7.56L91-7.56Q90.50-7.13 90.22-7.25L90.22-7.25L90.22-7.25Q89.94-7.38 89.69-7.03L89.69-7.03L89.69-7.03Q89.44-6.69 89.25-5.53L89.25-5.53L89.25-5.53Q89.06-4.38 88.56-3L88.56-3L88.56-3Q87.31 0.56 84.75 1.19L84.75 1.19L84.75 1.19Q83.19 1.56 82.53 1.03L82.53 1.03L82.53 1.03Q81.88 0.50 81.59-0.41L81.59-0.41L81.59-0.41Q81.31-1.31 81.13-2.28L81.13-2.28L81.13-2.28Q80.94-3.25 80.38-3.63L80.38-3.63L80.38-3.63Q78.19-5.81 78.69-9.38L78.69-9.38L78.69-9.38Q78.81-10.50 78.56-10.97L78.56-10.97L78.56-10.97Q78.31-11.44 78.22-11.94L78.22-11.94L78.22-11.94Q78.13-12.44 78-13L78-13L78-13Q77.69-14.38 77.31-14.75L77.31-14.75L77.31-14.75Q76.94-15.13 76.66-15.47L76.66-15.47L76.66-15.47Q76.38-15.81 76.19-16.44L76.19-16.44L76.19-16.44Q75.63-18 75.50-20.13L75.50-20.13L75.50-20.13Q75.38-22.25 75.19-23.34L75.19-23.34L75.19-23.34Q75-24.44 74.75-25.38L74.75-25.38L74.75-25.38Q74.13-27.75 73.97-29.50L73.97-29.50L73.97-29.50Q73.81-31.25 73.47-32.47L73.47-32.47L73.47-32.47Q73.13-33.69 72.75-34.88L72.75-34.88L72.75-34.88Q71.75-38.13 71.59-39.84L71.59-39.84L71.59-39.84Q71.44-41.56 71.34-42.44L71.34-42.44L71.34-42.44Q71.25-43.31 71.19-43.94ZM113.06-9.69L113.06-9.69L113.06-9.69Q113.50-8.63 114.38-8.63L114.38-8.63L114.38-8.63Q115.19-8.63 115.44-8.31L115.44-8.31L115.44-8.31Q115.88-7.63 115.44-5.69L115.44-5.69L115.44-5.69Q115.19-4.56 115.16-3.94L115.16-3.94L115.16-3.94Q115.13-3.31 115.06-2.88L115.06-2.88L115.06-2.88Q114.94-2.13 114.19-1.25L114.19-1.25L114.19-1.25Q113.38-0.56 112.41-0.28L112.41-0.28L112.41-0.28Q111.44 0 110.81 0.16L110.81 0.16L110.81 0.16Q110.19 0.31 109.44 0.69L109.44 0.69L109.44 0.69Q108.31 1.25 107.53 1.19L107.53 1.19L107.53 1.19Q106.75 1.13 106.34 1.09L106.34 1.09L106.34 1.09Q105.94 1.06 105.41 1.25L105.41 1.25L105.41 1.25Q104.88 1.44 104.56 1.41L104.56 1.41L104.56 1.41Q104.25 1.38 103.94 1.25L103.94 1.25L103.94 1.25Q103 0.88 102.19 0.88L102.19 0.88L102.19 0.88Q101.06 0.88 100.69-2.88L100.69-2.88L100.69-2.88Q100.50-4.38 100.63-5.75L100.63-5.75L100.63-5.75Q100.75-7.13 101.06-7.53L101.06-7.53L101.06-7.53Q101.38-7.94 101.81-8.09L101.81-8.09L101.81-8.09Q102.25-8.25 102.63-8.34L102.63-8.34L102.63-8.34Q103-8.44 103.31-8.50L103.31-8.50L103.31-8.50Q103.69-8.69 103.72-9.84L103.72-9.84L103.72-9.84Q103.75-11 103.81-12L103.81-12L103.81-12Q103.88-14.75 104.25-15.88L104.25-15.88L104.25-15.88Q104.88-17.56 104.06-18.75L104.06-18.75L104.06-18.75Q103.25-20.19 103.44-24.13L103.44-24.13L103.44-24.13Q103.56-26.50 103.38-28L103.38-28L103.38-28Q103.13-30.94 103.19-32.13L103.19-32.13L103.19-32.13Q103.25-33 103.25-33.50L103.25-33.50L103.25-33.50Q103.25-34 103.19-34.25L103.19-34.25L103.19-34.25Q103-34.75 102.06-34.78L102.06-34.78L102.06-34.78Q101.13-34.81 100.31-35.63L100.31-35.63L100.31-35.63Q99.50-36.44 99.63-38.19L99.63-38.19L99.63-38.19Q99.81-39.94 99.63-41.38L99.63-41.38L99.63-41.38Q99.44-42.81 99.81-43.63L99.81-43.63L99.81-43.63Q100.19-44.44 100.25-45L100.25-45L100.25-45Q100.31-45.56 100.44-46L100.44-46L100.44-46Q100.81-47 102.16-47.13L102.16-47.13L102.16-47.13Q103.50-47.25 104.66-47.09L104.66-47.09L104.66-47.09Q105.81-46.94 106.81-46.69L106.81-46.69L106.81-46.69Q109.44-46.06 110.25-46.06L110.25-46.06L110.25-46.06Q110.88-46.06 111.66-46.22L111.66-46.22L111.66-46.22Q112.44-46.38 113.19-46.50L113.19-46.50L113.19-46.50Q114.94-46.81 115.84-46.31L115.84-46.31L115.84-46.31Q116.75-45.81 116.97-45.13L116.97-45.13L116.97-45.13Q117.19-44.44 117.19-43.66L117.19-43.66L117.19-43.66Q117.19-42.88 117.09-42L117.09-42L117.09-42Q117-41.13 117.19-40.13L117.19-40.13L117.19-40.13Q117.75-37.88 117.25-36.47L117.25-36.47L117.25-36.47Q116.75-35.06 116.31-34.78L116.31-34.78L116.31-34.78Q115.88-34.50 115.47-34.44L115.47-34.44L115.47-34.44Q115.06-34.38 114.66-34.34L114.66-34.34L114.66-34.34Q114.25-34.31 113.94-33.88L113.94-33.88L113.94-33.88Q113.44-33.06 113.44-27.63L113.44-27.63L113.56-17.19L113.56-17.19Q113.56-13.19 113.06-9.69ZM120.06-37.19L120.06-37.19L120.19-40.75L120.19-40.75Q120.19-41.63 120.03-42.50L120.03-42.50L120.03-42.50Q119.88-43.38 120.47-44.34L120.47-44.34L120.47-44.34Q121.06-45.31 122.25-46.06L122.25-46.06L122.25-46.06Q123.44-46.81 124.94-46.81L124.94-46.81L124.94-46.81Q126.44-46.81 127.31-46.31L127.31-46.31L127.31-46.31Q128.19-45.81 128.94-45.50L128.94-45.50L128.94-45.50Q129.69-45.19 130.63-45L130.63-45L130.63-45Q132.63-44.69 134.50-45.56L134.50-45.56L134.50-45.56Q136.56-46.56 137.81-45.44L137.81-45.44L137.81-45.44Q139.13-45.38 140.56-45.69L140.56-45.69L140.56-45.69Q142.94-46.19 143.81-45.75L143.81-45.75L143.81-45.75Q145.75-44.63 144.44-41.25L144.44-41.25L144.44-41.25Q144.25-40.75 144.25-40.38L144.25-40.38L144.25-40.38Q144.25-40 144.25-39.63L144.25-39.63L144.25-39.63Q144.25-38.50 144.06-37.94L144.06-37.94L144.06-37.94Q143.88-37.38 143.88-37L143.88-37L143.88-37Q143.88-36.63 143.88-36.13L143.88-36.13L143.88-36.13Q144-35.13 143.56-34.19L143.56-34.19L143.56-34.19Q143.31-33.63 143.31-33.28L143.31-33.28L143.31-33.28Q143.31-32.94 143.31-32.63L143.31-32.63L143.31-32.63Q143.31-31.81 142.44-31.06L142.44-31.06L142.44-31.06Q141-29.56 140.06-29.56L140.06-29.56L140.06-29.56Q139.88-29.56 139.69-29.69L139.69-29.69L139.69-29.69Q139.50-29.81 139.13-29.94L139.13-29.94L139.13-29.94Q137.63-30.44 135.97-30.56L135.97-30.56L135.97-30.56Q134.31-30.69 133.56-30.50L133.56-30.50L133.56-30.50Q131.69-30.13 131.25-28.69L131.25-28.69L131.25-28.69Q130.75-27.19 131.50-26.38L131.50-26.38L131.50-26.38Q131.81-26 132.19-25.88L132.19-25.88L132.19-25.88Q132.56-25.75 132.91-25.84L132.91-25.84L132.91-25.84Q133.25-25.94 133.84-25.81L133.84-25.81L133.84-25.81Q134.44-25.69 135.06-25.50L135.06-25.50L135.06-25.50Q136.75-25.13 137.34-25.41L137.34-25.41L137.34-25.41Q137.94-25.69 138.16-25.63L138.16-25.63L138.16-25.63Q138.38-25.56 138.50-25.44L138.50-25.44L138.50-25.44Q138.94-25 139.31-25L139.31-25L139.31-25Q140.31-25.06 140.69-24.16L140.69-24.16L140.69-24.16Q141.06-23.25 140.56-21.94L140.56-21.94L140.56-21.94Q140.56-21.75 140.38-21L140.38-21L140.38-21Q139.94-19.50 139.97-18.94L139.97-18.94L139.97-18.94Q140-18.38 139.75-17.78L139.75-17.78L139.75-17.78Q139.50-17.19 139.06-16.75L139.06-16.75L139.06-16.75Q138-15.81 136.75-16.19L136.75-16.19L136.75-16.19Q136.19-16.44 135.75-16.88L135.75-16.88L135.75-16.88Q132.56-17.81 131.44-16.44L131.44-16.44L131.44-16.44Q130.81-15.69 130.75-15.13L130.75-15.13L130.75-15.13Q130.69-14.56 130.69-13.13L130.69-13.13L130.69-10.81L130.69-10.81Q131.50-10.25 132.19-9.53L132.19-9.53L132.19-9.53Q132.88-8.81 133.88-8.75L133.88-8.75L133.88-8.75Q134.88-8.69 135.66-8.91L135.66-8.91L135.66-8.91Q136.44-9.13 137.13-9.38L137.13-9.38L137.13-9.38Q138.63-10 139.88-9.59L139.88-9.59L139.88-9.59Q141.13-9.19 141.44-8.50L141.44-8.50L141.44-8.50Q141.75-7.81 141.56-6.69L141.56-6.69L141.56-6.69Q141.38-5.56 141.41-5.03L141.41-5.03L141.41-5.03Q141.44-4.50 141.44-4.06L141.44-4.06L141.44-4.06Q141.44-3 140.63-2L140.63-2L140.63-2Q139.75-0.69 139-0.41L139-0.41L139-0.41Q138.25-0.13 137.06-0.28L137.06-0.28L137.06-0.28Q135.88-0.44 135.13-0.16L135.13-0.16L135.13-0.16Q134.38 0.13 133.78 0.56L133.78 0.56L133.78 0.56Q133.19 1 132.63 1.38L132.63 1.38L132.63 1.38Q131.69 2 130.50 1.38L130.50 1.38L130.50 1.38Q130.06 1.13 129.63 0.88L129.63 0.88L129.63 0.88Q128.50 0.31 126.88 0.41L126.88 0.41L126.88 0.41Q125.25 0.50 124-0.53L124-0.53L124-0.53Q122.75-1.56 122.72-3.06L122.72-3.06L122.72-3.06Q122.69-4.56 122.88-5.22L122.88-5.22L122.88-5.22Q123.06-5.88 123.25-6.25L123.25-6.25L123.25-6.25Q123.50-7.06 123-7.50L123-7.50L123-7.50Q121.50-8.69 121.94-10.63L121.94-10.63L121.94-10.63Q122.13-11.63 122.31-12.19L122.31-12.19L122.31-12.19Q122.50-12.75 122.38-13.41L122.38-13.41L122.38-13.41Q122.25-14.06 122.28-14.59L122.28-14.59L122.28-14.59Q122.31-15.13 122.25-15.63L122.25-15.63L122.25-15.63Q122.13-16.63 121.38-16.75L121.38-16.75L121.38-16.75Q120.44-16.88 120.13-18.75L120.13-18.75L120.13-18.75Q119.75-20.56 120.41-22.38L120.41-22.38L120.41-22.38Q121.06-24.19 120.94-25.22L120.94-25.22L120.94-25.22Q120.81-26.25 120.75-27.13L120.75-27.13L120.81-29.56L120.81-29.56Q120.81-31.38 120.50-32L120.50-32L120.50-32Q120.19-32.63 120.31-33.84L120.31-33.84L120.31-33.84Q120.44-35.06 120.25-35.72L120.25-35.72L120.25-35.72Q120.06-36.38 120.06-37.19ZM169.97-36.44L169.97-36.44L169.97-36.44Q170.13-36.06 170.06-35.63L170.06-35.63L170.06-35.63Q170-35.19 169.19-34.13L169.19-34.13L169.19-34.13Q168.38-33.06 168.22-31.84L168.22-31.84L168.22-31.84Q168.06-30.63 168.13-29.84L168.13-29.84L168.13-29.84Q168.19-29.06 168.13-28.50L168.13-28.50L168.13-28.50Q168.06-27.13 166.63-26.63L166.63-26.63L166.63-26.63Q165.38-26.13 164.69-26.69L164.69-26.69L164.69-26.69Q164-27.25 163.56-28.16L163.56-28.16L163.56-28.16Q163.13-29.06 162.91-29.72L162.91-29.72L162.91-29.72Q162.69-30.38 162.19-30.44L162.19-30.44L162.19-30.44Q161.31-30.63 160.84-30.25L160.84-30.25L160.84-30.25Q160.38-29.88 160.13-29.63L160.13-29.63L160.13-29.63Q159.63-29.13 159.09-28.94L159.09-28.94L159.09-28.94Q158.56-28.75 158.25-28.56L158.25-28.56L158.25-28.56Q157.63-28.13 157.75-27.13L157.75-27.13L157.75-27.13Q158-25.19 162.06-21.25L162.06-21.25L162.06-21.25Q162.81-20.50 163.84-19.63L163.84-19.63L163.84-19.63Q164.88-18.75 165.88-17.63L165.88-17.63L165.88-17.63Q168.13-14.94 168.38-11.56L168.38-11.56L168.38-11.56Q168.63-8.13 167.38-5.56L167.38-5.56L167.38-5.56Q166.38-3.50 165-2.88L165-2.88L165-2.88Q163.94-2.31 163.56-1.41L163.56-1.41L163.56-1.41Q163.19-0.50 163-0.09L163-0.09L163-0.09Q162.81 0.31 162.22 0.59L162.22 0.59L162.22 0.59Q161.63 0.88 160.88 0.81L160.88 0.81L160.88 0.81Q160.13 0.75 159.47 0.53L159.47 0.53L159.47 0.53Q158.81 0.31 158.28 0.03L158.28 0.03L158.28 0.03Q157.75-0.25 157.41-0.31L157.41-0.31L157.41-0.31Q157.06-0.38 156.75-0.09L156.75-0.09L156.75-0.09Q156.44 0.19 156.13 0.50L156.13 0.50L156.13 0.50Q155.19 1.44 154.44 1.22L154.44 1.22L154.44 1.22Q153.69 1 152.69 0.50L152.69 0.50L152.69 0.50Q151.69 0 150.75-0.75L150.75-0.75L150.75-0.75Q147.38-3.38 148.44-6.13L148.44-6.13L148.44-6.13Q149.13-7.94 149.97-8.69L149.97-8.69L149.97-8.69Q150.81-9.44 151.31-9.44L151.31-9.44L151.31-9.44Q152.13-9.44 152.41-8.84L152.41-8.84L152.41-8.84Q152.69-8.25 152.88-7.84L152.88-7.84L152.88-7.84Q153.06-7.44 153.31-7.19L153.31-7.19L153.31-7.19Q153.56-6.94 154.09-6.69L154.09-6.69L154.09-6.69Q154.63-6.44 155.25-6.38L155.25-6.38L155.25-6.38Q156.81-6.25 157.63-7.63L157.63-7.63L157.63-7.63Q158.44-9 158.25-10.63L158.25-10.63L158.25-10.63Q157.81-13.56 157-13.13L157-13.13L157-13.13Q156.31-12.69 155.31-13.09L155.31-13.09L155.31-13.09Q154.31-13.50 154.25-14.16L154.25-14.16L154.25-14.16Q154.19-14.81 154-15.44L154-15.44L154-15.44Q153.81-16.06 153.56-16.63L153.56-16.63L153.56-16.63Q153-18.06 152.56-18.19L152.56-18.19L152.56-18.19Q152.06-18.31 151.22-18.31L151.22-18.31L151.22-18.31Q150.38-18.31 149.38-19.41L149.38-19.41L149.38-19.41Q148.38-20.50 147.94-22.16L147.94-22.16L147.94-22.16Q147.50-23.81 147.19-25.03L147.19-25.03L147.19-25.03Q146.88-26.25 146.63-26.94L146.63-26.94L146.63-26.94Q146.38-27.63 146.19-28.38L146.19-28.38L146.19-28.38Q145.56-30.75 146.13-34.50L146.13-34.50L146.13-34.50Q146.50-36.69 147.50-38.34L147.50-38.34L147.50-38.34Q148.50-40 149.75-41.63L149.75-41.63L149.75-41.63Q152.13-44.81 154.13-46.06L154.13-46.06L154.13-46.06Q156.13-47.31 157.19-46.31L157.19-46.31L157.19-46.31Q158.13-45.50 159.22-45.66L159.22-45.66L159.22-45.66Q160.31-45.81 160.94-46L160.94-46L162.06-46.25L162.06-46.25Q163.13-46.50 164.22-46.19L164.22-46.19L164.22-46.19Q165.31-45.88 166.19-44.06L166.19-44.06L166.19-44.06Q166.63-43.13 167.09-42.44L167.09-42.44L167.09-42.44Q167.56-41.75 168-41.13L168-41.13L168-41.13Q168.94-39.63 169.09-38.66L169.09-38.66L169.09-38.66Q169.25-37.69 169.53-37.25L169.53-37.25L169.53-37.25Q169.81-36.81 169.97-36.44ZM173.88-11.75L173.88-11.75L173.81-14.94L173.81-14.94Q173.81-15.81 173.88-16.56L173.88-16.56L173.88-16.56Q173.94-17.38 173.75-18.56L173.75-18.56L173.75-18.56Q173.44-20.63 173.47-21.59L173.47-21.59L173.47-21.59Q173.50-22.56 173.47-23.16L173.47-23.16L173.47-23.16Q173.44-23.75 173.31-24.25L173.31-24.25L173.31-24.25Q173.13-25 172.41-26.63L172.41-26.63L172.41-26.63Q171.69-28.25 171.69-30.13L171.69-30.13L171.69-30.13Q171.69-32 172.50-33.13L172.50-33.13L172.50-33.13Q173.25-34.25 173.06-35.44L173.06-35.44L173.06-35.44Q172.88-36.63 172.78-37.97L172.78-37.97L172.78-37.97Q172.69-39.31 172.75-40.72L172.75-40.72L172.75-40.72Q172.81-42.13 173.38-43.44L173.38-43.44L173.38-43.44Q174.75-46.63 178.88-46.50L178.88-46.50L178.88-46.50Q181.44-46.44 183.31-46L183.31-46L183.31-46Q185.19-45.56 186.06-45.63L186.06-45.63L186.06-45.63Q186.94-45.69 188.75-46.25L188.75-46.25L188.75-46.25Q191.38-47.25 192.94-46.13L192.94-46.13L192.94-46.13Q193.38-45.81 193.78-45.66L193.78-45.66L193.78-45.66Q194.19-45.50 194.50-45.19L194.50-45.19L194.50-45.19Q195.56-44 195.13-40L195.13-40L195.13-40Q195-38.81 194.88-37.63L194.88-37.63L194.88-37.63Q194.56-34.81 194.88-33.44L194.88-33.44L194.88-33.44Q195.19-32.06 195.22-31.03L195.22-31.03L195.22-31.03Q195.25-30 195.13-29.19L195.13-29.19L195.13-29.19Q194.75-27.38 193.69-27.38L193.69-27.38L193.69-27.38Q192.75-27.44 192.34-27.97L192.34-27.97L192.34-27.97Q191.94-28.50 191.69-29.16L191.69-29.16L191.69-29.16Q191.44-29.81 191.16-30.34L191.16-30.34L191.16-30.34Q190.88-30.88 189.94-30.88L189.94-30.88L189.94-30.88Q187.19-30.88 186.28-31.47L186.28-31.47L186.28-31.47Q185.38-32.06 184.69-32.16L184.69-32.16L184.69-32.16Q184-32.25 183.38-32L183.38-32L183.38-32Q182.06-31.44 181.84-29.94L181.84-29.94L181.84-29.94Q181.63-28.44 181.56-27.31L181.56-27.31L181.56-27.31Q181.50-26.19 181.56-25.25L181.56-25.25L181.56-25.25Q181.69-23.06 182.41-22.78L182.41-22.78L182.41-22.78Q183.13-22.50 183.63-22.72L183.63-22.72L183.63-22.72Q184.13-22.94 184.63-23.25L184.63-23.25L184.63-23.25Q186.13-24.25 187.72-24.22L187.72-24.22L187.72-24.22Q189.31-24.19 190.09-22.94L190.09-22.94L190.09-22.94Q190.88-21.69 190.75-20.53L190.75-20.53L190.75-20.53Q190.63-19.38 190.53-18.25L190.53-18.25L190.53-18.25Q190.44-17.13 190.25-16.13L190.25-16.13L190.25-16.13Q189.38-12.25 186.63-14.63L186.63-14.63L186.63-14.63Q183.06-14.88 182.19-13.75L182.19-13.75L182.19-13.75Q182-13.44 181.81-12.44L181.81-12.44L181.81-12.44Q181.63-11.44 181.75-10.31L181.75-10.31L181.75-10.31Q182.06-7.38 184.56-7.19L184.56-7.19L184.56-7.19Q186.19-7.06 187.53-7.63L187.53-7.63L187.53-7.63Q188.88-8.19 189.31-8.88L189.31-8.88L189.31-8.88Q189.69-9.63 190.25-9.72L190.25-9.72L190.25-9.72Q190.81-9.81 191.25-9.91L191.25-9.91L191.25-9.91Q191.69-10 192.13-10L192.13-10L192.13-10Q192.56-10 193-9.88L193-9.88L193-9.88Q194.13-9.50 194.34-8.13L194.34-8.13L194.34-8.13Q194.56-6.75 194.06-5.63L194.06-5.63L194.06-5.63Q193.56-4.50 193.41-3.59L193.41-3.59L193.41-3.59Q193.25-2.69 193.13-2.25L193.13-2.25L193.13-2.25Q193-1.81 192.41-1.16L192.41-1.16L192.41-1.16Q191.81-0.50 191.47-0.06L191.47-0.06L191.47-0.06Q191.13 0.38 190.38-0.25L190.38-0.25L190.38-0.25Q189-1.31 187.06 1L187.06 1L187.06 1Q186.56 1.69 186 2L186 2L186 2Q185.44 2.31 184.25 2.25L184.25 2.25L184.25 2.25Q183.06 2.19 182.38 1.63L182.38 1.63L182.38 1.63Q181.69 1.06 181.13 0.50L181.13 0.50L181.13 0.50Q180.19-0.69 177.88-0.38L177.88-0.38L177.88-0.38Q176.50-0.19 175.63-1.56L175.63-1.56L175.63-1.56Q175.44-1.75 175.34-2.25L175.34-2.25L175.34-2.25Q175.25-2.75 175.13-3.38L175.13-3.38L175.13-3.38Q174.69-5 174.34-5.47L174.34-5.47L174.34-5.47Q174-5.94 173.97-6.69L173.97-6.69L173.97-6.69Q173.94-7.44 173.81-8.28L173.81-8.28L173.81-8.28Q173.69-9.13 173.63-9.53L173.63-9.53L173.63-9.53Q173.56-9.94 173.72-10.50L173.72-10.50L173.72-10.50Q173.88-11.06 173.88-11.75ZM202.63 0.75L202.63 0.75L202.63 0.75Q202 0.94 201.22 0.66L201.22 0.66L201.22 0.66Q200.44 0.38 200.13-0.41L200.13-0.41L200.13-0.41Q199.81-1.19 199.72-2.22L199.72-2.22L199.72-2.22Q199.63-3.25 199.69-4.44L199.69-4.44L199.69-4.44Q199.75-5.63 199.75-6.75L199.75-6.75L199.75-6.75Q199.75-9.25 198.94-9.94L198.94-9.94L198.94-9.94Q197.25-11.19 197.56-16.31L197.56-16.31L197.56-16.31Q197.88-19.25 198.25-21L198.25-21L198.25-21Q198.88-23.88 198.84-25.88L198.84-25.88L198.84-25.88Q198.81-27.88 198.97-29L198.97-29L198.97-29Q199.13-30.13 199.34-30.88L199.34-30.88L199.34-30.88Q199.56-31.63 199.88-32.44L199.88-32.44L199.88-32.44Q200.19-33.25 200.44-35.13L200.44-35.13L200.44-35.13Q201.06-39.81 201.56-40.94L201.56-40.94L201.56-40.94Q202.25-42.50 203.22-44.16L203.22-44.16L203.22-44.16Q204.19-45.81 204.81-46.38L204.81-46.38L204.81-46.38Q206.25-47.44 208.94-46.56L208.94-46.56L208.94-46.56Q210.94-45.88 212.66-46.13L212.66-46.13L212.66-46.13Q214.38-46.38 215.28-46.34L215.28-46.34L215.28-46.34Q216.19-46.31 217.31-45.66L217.31-45.66L217.31-45.66Q218.44-45 219.06-44.09L219.06-44.09L219.06-44.09Q219.69-43.19 219.94-42.13L219.94-42.13L219.94-42.13Q220.38-40.31 220-37.53L220-37.53L220-37.53Q219.63-34.75 219.72-33.03L219.72-33.03L219.72-33.03Q219.81-31.31 220.47-29.78L220.47-29.78L220.47-29.78Q221.13-28.25 221.34-27.34L221.34-27.34L221.34-27.34Q221.56-26.44 221.72-25.53L221.72-25.53L221.72-25.53Q221.88-24.63 221.97-23.59L221.97-23.59L221.97-23.59Q222.06-22.56 222.34-21.25L222.34-21.25L222.34-21.25Q222.63-19.94 222.66-19.16L222.66-19.16L222.66-19.16Q222.69-18.38 222.63-17.88L222.63-17.88L222.63-17.88Q222.56-17.38 222.47-16.97L222.47-16.97L222.47-16.97Q222.38-16.56 222.53-15.72L222.53-15.72L222.53-15.72Q222.69-14.88 222.53-13.88L222.53-13.88L222.53-13.88Q222.38-12.88 222.19-11.94L222.19-11.94L222.19-11.94Q221.50-9.06 221.63-7.88L221.63-7.88L221.63-7.88Q221.88-5.75 221.63-4.84L221.63-4.84L221.63-4.84Q221.38-3.94 221.16-3.38L221.16-3.38L221.16-3.38Q220.94-2.81 220.66-1.81L220.66-1.81L220.66-1.81Q220.38-0.81 219.50 0L219.50 0L219.50 0Q218.63 0.81 217.84 0.50L217.84 0.50L217.84 0.50Q217.06 0.19 216.84-0.41L216.84-0.41L216.84-0.41Q216.63-1 216.47-1.63L216.47-1.63L216.47-1.63Q216.31-2.25 216.09-2.75L216.09-2.75L216.09-2.75Q215.88-3.25 215.31-3.31L215.31-3.31L215.31-3.31Q214.31-3.44 214.25-4.47L214.25-4.47L214.25-4.47Q214.19-5.50 214.28-6.28L214.28-6.28L214.28-6.28Q214.38-7.06 214.19-7.88L214.19-7.88L214.19-7.88Q214-8.69 213.56-9.44L213.56-9.44L213.56-9.44Q212.44-11.38 210.94-11.56L210.94-11.56L210.94-11.56Q208.69-11.88 207.81-9.38L207.81-9.38L207.81-9.38Q207.63-8.75 207.53-7.72L207.53-7.72L207.53-7.72Q207.44-6.69 207.03-5.88L207.03-5.88L207.03-5.88Q206.63-5.06 206.16-4.50L206.16-4.50L206.16-4.50Q205.69-3.94 205.28-3.47L205.28-3.47L205.28-3.47Q204.88-3 204.75-2.31L204.75-2.31L204.75-2.31Q204.25 0.38 202.63 0.75ZM208.19-25.44L208.19-25.44L208.19-25.44Q206.94-22.06 207.88-20.06L207.88-20.06L207.88-20.06Q208.50-18.94 209.50-18.88L209.50-18.88L209.50-18.88Q211.31-18.69 211.66-19.16L211.66-19.16L211.66-19.16Q212-19.63 212.47-20.16L212.47-20.16L212.47-20.16Q212.94-20.69 212.81-21.78L212.81-21.78L212.81-21.78Q212.69-22.88 212.63-23.72L212.63-23.72L212.63-23.72Q212.56-24.56 212.03-25.63L212.03-25.63L212.03-25.63Q211.50-26.69 211.31-27.91L211.31-27.91L211.31-27.91Q211.13-29.13 211.06-30.25L211.06-30.25L211.06-30.25Q210.81-32.75 209.94-32.75L209.94-32.75L209.94-32.75Q209.31-32.75 209.16-32.09L209.16-32.09L209.16-32.09Q209-31.44 208.94-30.38L208.94-30.38L208.94-30.38Q208.88-27.13 208.19-25.44ZM242.44-44.94L242.44-44.94L244.44-45.06L244.44-45.06Q246.56-45.06 247.47-44.38L247.47-44.38L247.47-44.38Q248.38-43.69 248.84-43.13L248.84-43.13L248.84-43.13Q249.31-42.56 249.69-41.97L249.69-41.97L249.69-41.97Q250.06-41.38 250.72-40.75L250.72-40.75L250.72-40.75Q251.38-40.13 251.38-39.28L251.38-39.28L251.38-39.28Q251.38-38.44 251.84-37.94L251.84-37.94L251.84-37.94Q252.31-37.44 252.31-36.31L252.31-36.31L252.31-36.31Q252.31-35.19 252.28-34.16L252.28-34.16L252.28-34.16Q252.25-33.13 252.06-32.47L252.06-32.47L252.06-32.47Q251.88-31.81 251.88-31.16L251.88-31.16L251.88-31.16Q251.88-30.50 252.16-29.97L252.16-29.97L252.16-29.97Q252.44-29.44 252.22-27.41L252.22-27.41L252.22-27.41Q252-25.38 251.53-23.31L251.53-23.31L251.53-23.31Q251.06-21.25 250.31-19.75L250.31-19.75L250.31-19.75Q248.81-16.94 245.44-15.31L245.44-15.31L245.44-15.31Q245.75-14.56 246.16-13.66L246.16-13.66L246.16-13.66Q246.56-12.75 246.94-11.81L246.94-11.81L246.94-11.81Q247.75-9.50 247.75-8.47L247.75-8.47L247.75-8.47Q247.75-7.44 247.84-6.97L247.84-6.97L247.84-6.97Q247.94-6.50 248.06-6.25L248.06-6.25L248.06-6.25Q248.19-6 248.41-5.88L248.41-5.88L248.41-5.88Q248.63-5.75 249.06-5.41L249.06-5.41L249.06-5.41Q249.50-5.06 249.75-4.25L249.75-4.25L249.75-4.25Q250-3.44 250-2.56L250-2.56L250-2.56Q250-0.56 249.53-0.09L249.53-0.09L249.53-0.09Q249.06 0.38 248.53 0.53L248.53 0.53L248.53 0.53Q248 0.69 247.44 0.75L247.44 0.75L247.44 0.75Q246 0.94 245.63 0.38L245.63 0.38L245.63 0.38Q245.13-0.13 245.09-0.66L245.09-0.66L245.09-0.66Q245.06-1.19 244.88-1.59L244.88-1.59L244.88-1.59Q244.69-2 244.31-2.09L244.31-2.09L244.31-2.09Q243.94-2.19 243.78-2.88L243.78-2.88L243.78-2.88Q243.63-3.56 243.34-3.78L243.34-3.78L243.34-3.78Q243.06-4 242.19-3.88L242.19-3.88L242.19-3.88Q240.63-3.56 239.88-5.75L239.88-5.75L239.88-5.75Q239.69-6.25 239.50-7.06L239.50-7.06L239.50-7.06Q239.31-7.88 239.06-8.63L239.06-8.63L239.06-8.63Q238.56-10.44 237.91-10.59L237.91-10.59L237.91-10.59Q237.25-10.75 236.94-10.44L236.94-10.44L236.94-10.44Q236.63-10.13 236.47-9.59L236.47-9.59L236.47-9.59Q236.31-9.06 236.31-8.41L236.31-8.41L236.31-8.41Q236.31-7.75 236.47-7L236.47-7L236.47-7Q236.63-6.25 236.50-5.75L236.50-5.75L236.50-5.75Q236.38-5.25 236.16-4.94L236.16-4.94L236.16-4.94Q235.94-4.63 235.69-4.38L235.69-4.38L235.69-4.38Q235.19-4.06 235.09-3.13L235.09-3.13L235.09-3.13Q235-2.19 234.81-1.50L234.81-1.50L234.81-1.50Q234.44 0.19 233.81 0.63L233.81 0.63L233.81 0.63Q233.19 1.06 232.56 1.16L232.56 1.16L232.56 1.16Q231.94 1.25 231.31 1.13L231.31 1.13L231.31 1.13Q229.75 0.81 229.38 0.03L229.38 0.03L229.38 0.03Q229-0.75 228.94-1.16L228.94-1.16L228.94-1.16Q228.88-1.56 228.91-1.94L228.91-1.94L228.91-1.94Q228.94-2.31 229-2.75L229-2.75L229-2.75Q229.06-3.19 229.03-3.78L229.03-3.78L229.03-3.78Q229-4.38 228.75-5.38L228.75-5.38L228.75-5.38Q228.50-6.38 228.44-7.75L228.44-7.75L228.38-9.38L228.38-9.38Q228.38-9.63 228.81-10.22L228.81-10.22L228.81-10.22Q229.25-10.81 229.09-11.59L229.09-11.59L229.09-11.59Q228.94-12.38 228.38-12.59L228.38-12.59L228.38-12.59Q227.81-12.81 227.81-13.13L227.81-13.13L227.81-13.13Q227.81-13.44 227.94-14.69L227.94-14.69L227.94-14.69Q228.06-15.94 227.84-17.81L227.84-17.81L227.84-17.81Q227.63-19.69 227.56-21.13L227.56-21.13L227.56-21.13Q227.31-24.25 226.47-24.66L226.47-24.66L226.47-24.66Q225.63-25.06 225.50-25.66L225.50-25.66L225.50-25.66Q225.38-26.25 225.50-27L225.50-27L225.50-27Q225.63-27.75 225.78-28.88L225.78-28.88L225.78-28.88Q225.94-30 226.13-31.16L226.13-31.16L226.13-31.16Q226.31-32.31 226.47-33.31L226.47-33.31L226.47-33.31Q226.63-34.31 226.69-34.69L226.69-34.69L226.69-34.69Q226.75-35.06 226.72-35.41L226.72-35.41L226.72-35.41Q226.69-35.75 226.69-36.06L226.69-36.06L226.69-36.06Q226.56-37.06 226.69-37.81L226.69-37.81L226.69-37.81Q226.94-39.25 226.81-39.84L226.81-39.84L226.81-39.84Q226.69-40.44 227.03-41.66L227.03-41.66L227.03-41.66Q227.38-42.88 227.63-43.38L227.63-43.38L227.63-43.38Q227.88-43.88 228.56-44.13L228.56-44.13L228.56-44.13Q229.25-44.38 229.91-44.84L229.91-44.84L229.91-44.84Q230.56-45.31 231.13-45.78L231.13-45.78L231.13-45.78Q231.69-46.25 232.13-46.66L232.13-46.66L232.13-46.66Q232.56-47.06 233.19-47.25L233.19-47.25L233.19-47.25Q235-47.63 235.84-47.34L235.84-47.34L235.84-47.34Q236.69-47.06 237.06-46.75L237.06-46.75L237.06-46.75Q237.44-46.44 237.97-46.13L237.97-46.13L237.97-46.13Q238.50-45.81 239.09-45.66L239.09-45.66L239.09-45.66Q239.69-45.50 240.19-45.50L240.19-45.50L240.19-45.50Q241.50-45.38 241.78-45.16L241.78-45.16L241.78-45.16Q242.06-44.94 242.44-44.94ZM237.25-27.50L237.25-27.50L237.63-21.81L237.63-21.81Q237.63-21.25 237.56-20.72L237.56-20.72L237.56-20.72Q237.50-20.19 237.44-19.75L237.44-19.75L237.44-19.75Q237.38-18.81 238.13-18.63L238.13-18.63L238.13-18.63Q238.75-18.50 239.13-18.97L239.13-18.97L239.13-18.97Q239.50-19.44 239.81-20.25L239.81-20.25L239.81-20.25Q240.56-21.81 240.31-22.25L240.31-22.25L240.31-22.25Q239.81-22.88 240.03-23.34L240.03-23.34L240.03-23.34Q240.25-23.81 240.97-25.19L240.97-25.19L240.97-25.19Q241.69-26.56 242.03-27.56L242.03-27.56L242.03-27.56Q242.38-28.56 242.19-29.72L242.19-29.72L242.19-29.72Q242-30.88 242-31.31L242-31.31L242-32L242-32Q242-32.50 241.53-32.91L241.53-32.91L241.53-32.91Q241.06-33.31 240.88-33.34L240.88-33.34L240.88-33.34Q240.69-33.38 240.56-33.38L240.56-33.38L240.56-33.38Q240-33.25 239.50-33.47L239.50-33.47L239.50-33.47Q239-33.69 238.56-33.66L238.56-33.66L238.56-33.66Q238.13-33.63 237.56-33.06L237.56-33.06L237.56-33.06Q237-32.50 236.94-31.91L236.94-31.91L236.94-31.91Q236.88-31.31 236.94-30.56L236.94-30.56L236.94-30.56Q237.25-28.31 237.25-27.50ZM279.91-37.59L279.91-37.59L279.91-37.59Q280.06-36.94 280.03-36.09L280.03-36.09L280.03-36.09Q280-35.25 279.56-33.72L279.56-33.72L279.56-33.72Q279.13-32.19 279.28-30.97L279.28-30.97L279.28-30.97Q279.44-29.75 279.63-29.34L279.63-29.34L279.63-29.34Q279.81-28.94 279.91-28.38L279.91-28.38L279.91-28.38Q280-27.81 279.88-27.19L279.88-27.19L279.88-27.19Q279.56-25.75 278.06-24.94L278.06-24.94L278.06-24.94Q276.63-24.31 275.59-23.59L275.59-23.59L275.59-23.59Q274.56-22.88 273.44-22.50L273.44-22.50L273.44-22.50Q273.19-21.75 272.97-21.13L272.97-21.13L272.97-21.13Q272.75-20.50 272.25-20.16L272.25-20.16L272.25-20.16Q271.75-19.81 271.13-20.03L271.13-20.03L271.13-20.03Q270.50-20.25 270.63-21.34L270.63-21.34L270.63-21.34Q270.75-22.44 270.28-22.84L270.28-22.84L270.28-22.84Q269.81-23.25 269.53-23.50L269.53-23.50L269.53-23.50Q269.25-23.75 269-24L269-24L269-24Q268.75-24.25 268.63-24.63L268.63-24.63L268.63-24.63Q268.31-25.75 268.78-26.63L268.78-26.63L268.78-26.63Q269.25-27.50 269.28-27.94L269.28-27.94L269.28-27.94Q269.31-28.38 269.25-28.88L269.25-28.88L269.25-28.88Q269.06-30.13 269.22-31L269.22-31L269.22-31Q269.38-31.88 268.78-32.50L268.78-32.50L268.78-32.50Q268.19-33.13 267.47-33.06L267.47-33.06L267.47-33.06Q266.75-33 266.28-31.13L266.28-31.13L266.28-31.13Q265.81-29.25 265.56-26.47L265.56-26.47L265.56-26.47Q265.31-23.69 265.28-20.44L265.28-20.44L265.28-20.44Q265.25-17.19 265.56-14.38L265.56-14.38L265.56-14.38Q266.19-7.94 267.81-7.81L267.81-7.81L267.81-7.81Q269.44-7.69 270.31-8.28L270.31-8.28L270.31-8.28Q271.19-8.88 271.69-9.63L271.69-9.63L271.69-9.63Q272.19-10.38 272.47-11.03L272.47-11.03L272.47-11.03Q272.75-11.69 273.13-11.81L273.13-11.81L273.13-11.81Q275.75-12.69 276.81-10.75L276.81-10.75L276.81-10.75Q277.25-9.94 277.25-8.44L277.25-8.44L277.25-8.44Q277.25-6.94 277.03-6.22L277.03-6.22L277.03-6.22Q276.81-5.50 276.53-5.03L276.53-5.03L276.53-5.03Q276.25-4.56 276-4.19L276-4.19L276-4.19Q275.75-3.81 275.63-3.22L275.63-3.22L275.63-3.22Q275.50-2.63 275.06-2.13L275.06-2.13L275.06-2.13Q274.63-1.63 274-1.25L274-1.25L274-1.25Q272.69-0.56 271.81-0.56L271.81-0.56L271.81-0.56Q268.38-0.56 266.69 0.69L266.69 0.69L266.69 0.69Q265.63 1.56 264.56 1.50L264.56 1.50L264.56 1.50Q263 1.44 262.44 0.88L262.44 0.88L262.44 0.88Q261.88 0.31 260.94-0.25L260.94-0.25L260.94-0.25Q260-0.81 259.84-1.66L259.84-1.66L259.84-1.66Q259.69-2.50 259.25-3L259.25-3L259.25-3Q258.81-3.50 258.31-4.25L258.31-4.25L258.31-4.25Q257-5.94 257-8.25L257-8.25L257-8.25Q257-9.69 257.06-10.63L257.06-10.63L257.06-10.63Q257.13-11.56 257.06-12.25L257.06-12.25L257.06-12.25Q257.06-13.56 255.94-14.97L255.94-14.97L255.94-14.97Q254.81-16.38 254.63-17.41L254.63-17.41L254.63-17.41Q254.44-18.44 254.28-19.34L254.28-19.34L254.28-19.34Q254.13-20.25 254.25-21.13L254.25-21.13L254.25-21.13Q254.38-22 254.50-22.94L254.50-22.94L254.50-22.94Q254.63-23.88 254.97-24.56L254.97-24.56L254.97-24.56Q255.31-25.25 255.22-25.94L255.22-25.94L255.22-25.94Q255.13-26.63 255.34-27.06L255.34-27.06L255.34-27.06Q255.56-27.50 255.75-28L255.75-28L255.75-28Q256.25-29.38 255.63-30.72L255.63-30.72L255.63-30.72Q255-32.06 254.97-32.88L254.97-32.88L254.97-32.88Q254.94-33.69 255.13-34.34L255.13-34.34L255.13-34.34Q255.31-35 255.53-35.59L255.53-35.59L255.53-35.59Q255.75-36.19 255.75-37.13L255.75-37.13L255.75-37.13Q255.75-38.06 256.09-39.31L256.09-39.31L256.09-39.31Q256.44-40.56 257.84-40.91L257.84-40.91L257.84-40.91Q259.25-41.25 259.44-41.88L259.44-41.88L259.44-41.88Q259.63-42.50 259.88-43.19L259.88-43.19L259.88-43.19Q260.06-43.88 261.06-44.72L261.06-44.72L261.06-44.72Q262.06-45.56 263.97-45.84L263.97-45.84L263.97-45.84Q265.88-46.13 266.72-45.88L266.72-45.88L266.72-45.88Q267.56-45.63 268.25-44.84L268.25-44.84L268.25-44.84Q268.94-44.06 269.56-43.97L269.56-43.97L269.56-43.97Q270.19-43.88 270.88-44L270.88-44L270.88-44Q274.13-44.44 277.38-42.63L277.38-42.63L277.38-42.63Q278.50-42 278.88-40.69L278.88-40.69L278.88-40.69Q279.25-39.38 279.50-38.81L279.50-38.81L279.50-38.81Q279.75-38.25 279.91-37.59ZM299.38-7.88L299.38-7.88L299.44-12.63L299.44-14.19L299.44-14.19Q299.44-16.06 299.06-16.56L299.06-16.56L299.06-16.56Q298.50-17.44 297.31-17.41L297.31-17.41L297.31-17.41Q296.13-17.38 295.59-16.69L295.59-16.69L295.59-16.69Q295.06-16 294.97-15L294.97-15L294.97-15Q294.88-14 294.84-12.81L294.84-12.81L294.84-12.81Q294.81-11.63 294.81-10.25L294.81-10.25L294.81-10.25Q294.69-7.50 294.84-6L294.84-6L294.84-6Q295-4.50 294.84-4.09L294.84-4.09L294.84-4.09Q294.69-3.69 294.19-3.28L294.19-3.28L294.19-3.28Q293.69-2.88 293.38-2.22L293.38-2.22L293.38-2.22Q293.06-1.56 292.81-0.88L292.81-0.88L292.81-0.88Q292.06 0.75 291.25 0.81L291.25 0.81L291.25 0.81Q288.81 1.06 287.06-1.81L287.06-1.81L287.06-1.81Q286.69-2.50 286.06-3.13L286.06-3.13L286.06-3.13Q284.75-4.56 285.56-7.75L285.56-7.75L285.56-7.75Q285.88-9.25 285.88-10.84L285.88-10.84L285.88-10.84Q285.88-12.44 285.75-13.13L285.75-13.13L285.75-13.13Q285.63-13.81 285.75-14.66L285.75-14.66L285.75-14.66Q285.88-15.50 285.56-16.16L285.56-16.16L285.56-16.16Q285.25-16.81 285.34-17.88L285.34-17.88L285.34-17.88Q285.44-18.94 285.22-19.72L285.22-19.72L285.22-19.72Q285-20.50 285.13-21.13L285.13-21.13L285.13-21.13Q285.25-21.75 284.97-22.13L284.97-22.13L284.97-22.13Q284.69-22.50 284.78-23.22L284.78-23.22L284.78-23.22Q284.88-23.94 284.94-24.75L284.94-24.75L284.94-24.75Q285.13-27 284.38-28.19L284.38-28.19L284.38-28.19Q283.63-29.38 283.09-30.94L283.09-30.94L283.09-30.94Q282.56-32.50 283.25-34.69L283.25-34.69L283.25-34.69Q284.31-38 283.88-42L283.88-42L283.88-42Q283.75-43 284.31-44.31L284.31-44.31L284.31-44.31Q285.13-46.38 289.63-46.63L289.63-46.63L289.63-46.63Q291.06-46.69 292.22-47L292.22-47L292.22-47Q293.38-47.31 294.53-47.03L294.53-47.03L294.53-47.03Q295.69-46.75 295.88-45.56L295.88-45.56L295.88-45.56Q296.06-44.38 296.22-43.94L296.22-43.94L296.22-43.94Q296.38-43.50 296.44-43.06L296.44-43.06L296.44-43.06Q296.56-42.25 296.19-40.47L296.19-40.47L296.19-40.47Q295.81-38.69 295.75-37.47L295.75-37.47L295.75-37.47Q295.69-36.25 295.69-35.13L295.69-35.13L295.69-35.13Q295.81-32.38 295.47-31.22L295.47-31.22L295.47-31.22Q295.13-30.06 295.25-29.47L295.25-29.47L295.25-29.47Q295.38-28.88 295.75-28.50L295.75-28.50L295.75-28.50Q297-27.38 299.19-28.75L299.19-28.75L299.19-28.75Q299.50-28.94 299.75-29.38L299.75-29.38L299.75-29.38Q299.44-31.13 299.38-33.69L299.38-33.69L299.38-33.69Q299.31-37.50 299.13-39.66L299.13-39.66L299.13-39.66Q298.94-41.81 299.19-43.25L299.19-43.25L299.19-43.25Q299.44-44.69 300.50-45.94L300.50-45.94L300.50-45.94Q301.56-47.19 302.47-47.03L302.47-47.03L302.47-47.03Q303.38-46.88 303.97-46.28L303.97-46.28L303.97-46.28Q304.56-45.69 305.06-45.75L305.06-45.75L305.06-45.75Q305.56-45.81 306.44-46.38L306.44-46.38L306.44-46.38Q308.75-47.75 310.75-44.69L310.75-44.69L310.75-44.69Q310.13-44.06 310.41-42.41L310.41-42.41L310.41-42.41Q310.69-40.75 310.50-40.03L310.50-40.03L310.50-40.03Q310.31-39.31 310.25-38.03L310.25-38.03L310.25-38.03Q310.19-36.75 310.16-35.56L310.16-35.56L310.16-35.56Q310.13-34.38 309.81-32.44L309.81-32.44L309.81-32.44Q309.38-29.75 309.75-26.25L309.75-26.25L309.75-26.25Q310.13-22.75 309.88-19.94L309.88-19.94L309.88-19.94Q309.63-17.13 309.75-15.25L309.75-15.25L309.75-15.25Q309.88-13.38 309.66-12.75L309.66-12.75L309.66-12.75Q309.44-12.13 309.19-11.50L309.19-11.50L309.19-11.50Q308.25-9.69 308.13-7.81L308.13-7.81L308.13-7.81Q308-6.25 307.94-4.72L307.94-4.72L307.94-4.72Q307.88-3.19 307.63-2L307.63-2L307.63-2Q307.06 0.69 305.06 0.69L305.06 0.69L305.06 0.69Q302.81 0.69 302.50-2.75L302.50-2.75L302.50-2.75Q301.06-3.19 300.16-4.25L300.16-4.25L300.16-4.25Q299.25-5.31 299.38-7.88Z" fill="#444"></path></g></g><style>text {
  font-size: 64px;
  font-family: Arial Black;
  dominant-baseline: central;
  text-anchor: middle;
}</style></svg>